<?xml version="1.0" standalone="no"?><!DOCTYPE svg PUBLIC "-//W3C//DTD SVG 1.1//EN" "http://www.w3.org/Graphics/SVG/1.1/DTD/svg11.dtd"><svg class="icon" height="512" viewBox="0 0 1159 1024" version="1.1" xmlns="http://www.w3.org/2000/svg"><path d="M89.62045 906.491803C58.70435 906.491803 33.57377 881.412882 33.57377 850.685348L33.57377 89.380226C33.57377 58.56404 58.642002 33.57377 89.62045 33.57377L833.658239 33.57377C864.57434 33.57377 889.704918 58.652693 889.704918 89.380226L889.704918 555.918032 923.278689 623.065573 923.278689 89.380226C923.278689 40.094929 883.101174 0 833.658239 0L89.62045 0C40.123091 0 0 39.998308 0 89.380226L0 850.685348C0 899.970646 40.177515 940.065574 89.62045 940.065574L417.811476 940.065574 451.385247 906.491803 89.62045 906.491803ZM889.704918 302.163934 33.57377 302.163934 33.57377 335.737705 889.704918 335.737705ZM167.535614 503.606557C185.893853 503.606557 200.776147 488.575068 200.776147 470.032787 200.776147 451.490505 185.893853 436.459016 167.535614 436.459016 149.177375 436.459016 134.295082 451.490505 134.295082 470.032787 134.295082 488.575068 149.177375 503.606557 167.535614 503.606557ZM310.224139 503.606557C328.582377 503.606557 343.464671 488.575068 343.464671 470.032787 343.464671 451.490505 328.582377 436.459016 310.224139 436.459016 291.8659 436.459016 276.983607 451.490505 276.983607 470.032787 276.983607 488.575068 291.8659 503.606557 310.224139 503.606557ZM452.912664 503.606557C471.270902 503.606557 486.153196 488.575068 486.153196 470.032787 486.153196 451.490505 471.270902 436.459016 452.912664 436.459016 434.554425 436.459016 419.672131 451.490505 419.672131 470.032787 419.672131 488.575068 434.554425 503.606557 452.912664 503.606557ZM167.535614 805.770492C185.893853 805.770492 200.776147 790.739003 200.776147 772.196721 200.776147 753.65444 185.893853 738.622951 167.535614 738.622951 149.177375 738.622951 134.295082 753.65444 134.295082 772.196721 134.295082 790.739003 149.177375 805.770492 167.535614 805.770492ZM310.224139 805.770492C328.582377 805.770492 343.464671 790.739003 343.464671 772.196721 343.464671 753.65444 328.582377 738.622951 310.224139 738.622951 291.8659 738.622951 276.983607 753.65444 276.983607 772.196721 276.983607 790.739003 291.8659 805.770492 310.224139 805.770492ZM621.114754 637.901639 621.114754 604.327869 33.57377 604.327869 33.57377 637.901639ZM167.535614 201.442623C185.893853 201.442623 200.776147 186.411134 200.776147 167.868852 200.776147 149.326571 185.893853 134.295082 167.535614 134.295082 149.177375 134.295082 134.295082 149.326571 134.295082 167.868852 134.295082 186.411134 149.177375 201.442623 167.535614 201.442623ZM310.224139 201.442623C328.582377 201.442623 343.464671 186.411134 343.464671 167.868852 343.464671 149.326571 328.582377 134.295082 310.224139 134.295082 291.8659 134.295082 276.983607 149.326571 276.983607 167.868852 276.983607 186.411134 291.8659 201.442623 310.224139 201.442623ZM452.912664 201.442623C471.270902 201.442623 486.153196 186.411134 486.153196 167.868852 486.153196 149.326571 471.270902 134.295082 452.912664 134.295082 434.554425 134.295082 419.672131 149.326571 419.672131 167.868852 419.672131 186.411134 434.554425 201.442623 452.912664 201.442623ZM436.348027 947.497172C418.752777 976.7641 426.352895 990.182808 460.58501 990.182808L1077.807023 990.182808C1112.088611 990.182808 1119.662997 976.80359 1102.044007 947.497172L796.66916 439.554187C778.659429 409.597836 759.734443 409.594776 741.722874 439.554187L436.348027 947.497172ZM825.443199 422.255263 1130.818045 930.198248C1161.882505 981.869086 1138.213487 1023.756578 1077.807023 1023.756578L460.58501 1023.756578C400.243371 1023.756578 376.525357 981.842758 407.573989 930.198248L712.948835 422.255263C744.013297 370.584423 794.394567 370.610752 825.443199 422.255263ZM741.205549 903.5683C741.205549 918.843303 753.348553 931.230371 768.322594 931.230371 783.297096 931.230371 795.440101 918.843303 795.440101 903.5683 795.440101 888.292824 783.297096 875.905756 768.322594 875.905756 753.341138 875.905756 741.205549 888.292824 741.205549 903.5683L741.205549 903.5683ZM794.379852 630.48616C794.379852 614.381607 788.845051 602.560828 768.866225 602.560828 748.887399 602.560828 743.917286 614.381605 743.917286 630.48616 743.917286 631.070223 752.857798 818.236218 752.857798 818.236218 752.857798 828.822691 755.704666 837.690459 768.866225 837.69044 782.027784 837.690422 785.430604 829.036334 785.430605 818.23622L794.379852 630.48616Z" /></svg>